<svg width="60" height="894" viewBox="0 0 60 894" fill="none" xmlns="http://www.w3.org/2000/svg">
<path fill-rule="evenodd" clip-rule="evenodd" d="M24.5 432V0H35.5V432V639.97C41.6271 642.213 46 648.096 46 655C46 661.904 41.6271 667.787 35.5 670.03V734.382C44.6165 736.808 51.3333 745.12 51.3333 755C51.3333 764.88 44.6165 773.192 35.5 775.618V835.181C49.0714 837.756 59.3333 849.68 59.3333 864C59.3333 880.2 46.2003 893.333 30 893.333C13.7996 893.333 0.666626 880.2 0.666626 864C0.666626 849.68 10.9286 837.756 24.5 835.181V775.618C15.3834 773.192 8.66663 764.88 8.66663 755C8.66663 745.12 15.3834 736.808 24.5 734.382V670.03C18.3728 667.787 14 661.904 14 655C14 648.096 18.3728 642.213 24.5 639.97V432Z" fill="#E97072"/>
</svg>
